<svg width="76" height="25" viewBox="0 0 76 25" fill="none" xmlns="http://www.w3.org/2000/svg">
<path d="M4.3639 23.6784H0V0.000225067H4.3639V23.6784Z" fill="#FFA137"/>
<path d="M36.4016 23.6782L35.9621 21.4458C34.6439 23.4408 32.4821 24.0873 30.4063 23.9712C24.8958 23.5974 22.3906 19.8446 22.3906 15.6474C22.3906 10.8138 25.704 7.32875 31.0477 7.32875C32.8104 7.32875 34.7348 8.14193 35.6844 9.5612V2.67029e-05H40.0482V23.6782H36.4016ZM35.8611 15.7282C35.8965 13.1574 34.2045 11.132 31.3154 11.132C28.2849 11.132 26.8202 13.3948 26.8202 15.6272C26.8035 16.2223 26.9083 16.8146 27.1282 17.3678C27.3482 17.921 27.6786 18.4235 28.0993 18.8447C28.52 19.2659 29.0222 19.5969 29.5752 19.8175C30.1282 20.038 30.7203 20.1435 31.3154 20.1275C34.058 20.1073 35.851 18.2334 35.851 15.7282H35.8611Z" fill="#FFA137"/>
<path d="M54.8597 23.6782L54.4203 21.4458C53.1021 23.4408 50.9353 24.0873 48.8644 23.9712C43.3489 23.5974 40.8438 19.8446 40.8438 15.6474C40.8438 10.8138 44.1621 7.32875 49.5059 7.32875C51.2636 7.32875 53.193 8.14193 54.1375 9.5612V2.67029e-05H58.5014V23.6782H54.8597ZM54.3193 15.7282C54.3496 13.1574 52.6626 11.132 49.7736 11.132C46.7431 11.132 45.2733 13.3948 45.2733 15.6272C45.2595 16.2193 45.3659 16.8081 45.5862 17.3579C45.8064 17.9077 46.1359 18.4071 46.5547 18.8259C46.9735 19.2447 47.4729 19.5742 48.0227 19.7944C48.5725 20.0147 49.1613 20.1211 49.7534 20.1073C52.5263 20.1073 54.3193 18.2334 54.3193 15.7282Z" fill="#FFA137"/>
<path d="M21.6119 20.2286V14.107C21.6119 9.56128 17.3137 7.03587 13.1569 7.03587C10.384 7.03587 7.60097 7.78339 5.88369 10.4553L8.65658 12.8544C10.5506 10.329 16.0308 10.1825 17.1116 13.7332H12.0053C8.46971 13.7332 5.03516 14.9858 5.03516 18.6729C5.03516 22.461 8.4192 23.9813 11.7679 24.0167C13.965 24.0167 16.3136 23.1732 17.45 21.4155L17.8592 23.6783H21.7786L21.6119 20.2286ZM17.0056 16.3193C16.3136 18.7689 13.768 20.7791 11.086 21.1781C10.6866 21.2376 10.2824 21.2596 9.87888 21.2438C9.85694 21.2433 9.83564 21.2363 9.81766 21.2237C9.79969 21.2112 9.78584 21.1935 9.77786 21.1731L8.39394 17.582C8.38756 17.5668 8.38481 17.5503 8.3859 17.5339C8.38699 17.5174 8.39189 17.5015 8.40023 17.4872C8.40856 17.473 8.42009 17.4609 8.4339 17.452C8.44772 17.443 8.46343 17.4373 8.47981 17.4355L16.8793 16.193C16.8963 16.1914 16.9134 16.1936 16.9294 16.1994C16.9454 16.2052 16.96 16.2145 16.972 16.2265C16.9841 16.2386 16.9933 16.2531 16.9991 16.2692C17.0049 16.2852 17.0071 16.3023 17.0056 16.3193Z" fill="#FFA137"/>
<path d="M75.8307 20.2286V14.107C75.8307 9.56128 71.5324 7.03587 67.3756 7.03587C64.5977 7.03587 61.8197 7.78339 60.1024 10.4553L62.8753 12.8544C64.7694 10.329 70.2495 10.1825 71.3304 13.7332H66.224C62.6885 13.7332 59.2539 14.9858 59.2539 18.6729C59.2539 22.461 62.6379 23.9813 65.9866 24.0167C68.1837 24.0167 70.5324 23.1732 71.6688 21.4155L72.0729 23.6783H75.9973L75.8307 20.2286ZM71.2496 16.3193C70.5576 18.7689 68.012 20.7791 65.33 21.1781C64.9306 21.2375 64.5264 21.2595 64.1229 21.2438C64.1009 21.2433 64.0796 21.2363 64.0617 21.2237C64.0437 21.2112 64.0298 21.1935 64.0219 21.1731L62.6127 17.582C62.6063 17.5668 62.6036 17.5503 62.6047 17.5339C62.6057 17.5174 62.6106 17.5015 62.619 17.4872C62.6273 17.473 62.6388 17.4609 62.6527 17.452C62.6665 17.443 62.6822 17.4373 62.6986 17.4355L71.098 16.193C71.1168 16.1868 71.1368 16.1855 71.1562 16.1892C71.1756 16.1928 71.1937 16.2014 71.2089 16.214C71.224 16.2267 71.2357 16.243 71.2429 16.2614C71.25 16.2798 71.2523 16.2997 71.2496 16.3193Z" fill="#FFA137"/>
</svg>
