<svg width="30" height="27" viewBox="0 0 30 27" fill="none" xmlns="http://www.w3.org/2000/svg">
<g id="Group 1556">
<g id="Group">
<path id="Vector" d="M12.3507 26.3039C12.3166 26.3088 12.282 26.3089 12.2479 26.3042C7.06285 25.6038 3.40195 21.6898 1.66145 14.9848C0.363673 9.98617 0.585098 5.12579 0.587555 5.07728C0.597625 4.87272 0.766493 4.71204 0.971302 4.71204C5.56008 4.71204 5.72227 0.552138 5.72692 0.375075C5.73246 0.16676 5.90293 0.000763842 6.11131 0.00075156L18.4882 2.2148e-05C18.6971 9.8381e-06 18.8677 0.166895 18.8723 0.375722C18.8771 0.55201 19.0386 4.7119 23.6274 4.7119C23.8322 4.7119 24.0011 4.87259 24.0112 5.07716C24.0123 5.10156 24.037 5.61776 24.0252 6.48698C24.0223 6.69913 23.8459 6.86703 23.6338 6.86189C23.4217 6.85675 23.2542 6.68058 23.257 6.46844C23.2585 6.35224 23.2594 6.24244 23.2597 6.13946C23.261 5.76379 22.9604 5.46289 22.5883 5.41093C19.5942 4.99282 18.5972 2.77811 18.2668 1.43433C18.174 1.05693 17.8497 0.768267 17.461 0.768267H7.13835C6.7497 0.768267 6.42539 1.05693 6.33259 1.43433C6.00435 2.76912 5.01856 4.96317 2.07083 5.40231C1.66565 5.46267 1.33935 5.78524 1.34282 6.19488C1.3767 10.1988 2.22244 24.0269 12.1899 25.5196C12.2611 25.5302 12.3374 25.5303 12.4085 25.5197C20.6093 24.2945 22.6555 14.8865 23.1302 9.0884C23.1476 8.87686 23.3312 8.72013 23.5429 8.73549C23.7545 8.75084 23.9141 8.93211 23.8968 9.14357C23.4012 15.212 21.2198 25.1062 12.3507 26.3039Z" fill="#195587"/>
<path id="Vector_2" d="M12.3157 24.271C12.3047 24.2728 12.2935 24.2729 12.2825 24.2712L12.2819 24.2711C7.90756 23.6803 4.81535 20.3633 3.33961 14.6791C2.23054 10.4066 2.41963 6.25438 2.42157 6.21312C2.4249 6.1449 2.48131 6.09129 2.54961 6.09129C6.70976 6.09129 6.84143 2.32148 6.8448 2.16097C6.8463 2.09132 6.9032 2.03564 6.97287 2.03564H17.6252C17.6948 2.03564 17.7516 2.09116 17.7533 2.16071C17.757 2.32135 17.8939 6.09129 22.0483 6.09129C22.1166 6.09129 22.1728 6.14497 22.1761 6.21312C22.1764 6.21867 22.2021 6.75035 22.1847 7.61353C22.1832 7.68422 22.1245 7.74041 22.0538 7.73873C21.9831 7.73705 21.9271 7.6783 21.9286 7.60754C21.9329 7.39056 21.9345 7.19489 21.9345 7.02366C21.9345 6.64425 21.6255 6.34675 21.2492 6.29834C18.7116 5.97191 17.8887 4.09851 17.6229 2.98944C17.5293 2.59889 17.1979 2.29173 16.7963 2.29173H7.80161C7.39995 2.29173 7.06849 2.59896 6.97481 2.98955C6.71107 4.08915 5.89928 5.93999 3.41213 6.28966C3.00163 6.34737 2.66348 6.6716 2.66587 7.08613C2.68536 10.4654 3.37146 22.6952 12.1913 23.9996C12.261 24.0099 12.3357 24.01 12.4054 23.9997C19.2445 22.9887 21.1695 15.3857 21.7062 10.8319C21.7145 10.7616 21.7777 10.7131 21.848 10.7211C21.9182 10.7292 21.9689 10.7906 21.9606 10.8608C21.4122 15.5158 19.4267 23.3107 12.3157 24.271Z" fill="#195587"/>
<path id="Vector_3" d="M13.3912 20.4764C13.7061 20.8201 14.2508 20.8105 14.5535 20.456L27.9141 4.80499C28.5048 4.11306 27.6279 3.14462 26.8809 3.66398L14.1131 12.5411L11.8212 9.69805C11.6739 9.51531 11.4517 9.40907 11.217 9.40907H5.01274C4.33756 9.40907 3.98445 10.2116 4.44061 10.7094L13.3912 20.4764ZM13.9427 18.7924L6.75918 10.9535H10.8496L13.3598 14.0677C13.6154 14.3848 14.0726 14.4503 14.407 14.2178L22.8724 8.33203L13.9427 18.7924Z" fill="#3FBE75" stroke="#E2FAFD" stroke-width="0.776027"/>
</g>
</g>
</svg>
