<svg width="167" height="50" viewBox="0 0 167 50" fill="none" xmlns="http://www.w3.org/2000/svg">
<path d="M0.390625 7.8125C0.390625 3.71351 3.71351 0.390625 7.8125 0.390625H158.594C162.693 0.390625 166.016 3.71351 166.016 7.8125V42.1875C166.016 46.2865 162.693 49.6094 158.594 49.6094H7.8125C3.71351 49.6094 0.390625 46.2865 0.390625 42.1875V7.8125Z" fill="black" stroke="#979797" stroke-width="0.78125"/>
<path d="M54.8252 17.25V10.1406H56.832C57.4505 10.1406 57.9974 10.2773 58.4727 10.5508C58.9479 10.8242 59.3141 11.2132 59.5713 11.7178C59.8317 12.2223 59.9635 12.8018 59.9668 13.4561V13.9102C59.9668 14.5807 59.8366 15.1683 59.5762 15.6729C59.319 16.1774 58.9495 16.5648 58.4678 16.835C57.9893 17.1051 57.431 17.2435 56.793 17.25H54.8252ZM55.7627 10.9121V16.4834H56.749C57.4717 16.4834 58.0332 16.2588 58.4336 15.8096C58.8372 15.3604 59.0391 14.7207 59.0391 13.8906V13.4756C59.0391 12.6683 58.8486 12.0417 58.4678 11.5957C58.0902 11.1465 57.5531 10.9186 56.8564 10.9121H55.7627ZM62.0068 14.5596C62.0068 14.042 62.1077 13.5765 62.3096 13.1631C62.5146 12.7497 62.7979 12.4307 63.1592 12.2061C63.5238 11.9814 63.9388 11.8691 64.4043 11.8691C65.1237 11.8691 65.7048 12.1182 66.1475 12.6162C66.5934 13.1143 66.8164 13.7767 66.8164 14.6035V14.667C66.8164 15.1813 66.7171 15.6436 66.5186 16.0537C66.3232 16.4606 66.0417 16.778 65.6738 17.0059C65.3092 17.2337 64.8893 17.3477 64.4141 17.3477C63.6979 17.3477 63.1169 17.0986 62.6709 16.6006C62.2282 16.1025 62.0068 15.4434 62.0068 14.623V14.5596ZM62.915 14.667C62.915 15.2529 63.0501 15.7233 63.3203 16.0781C63.5938 16.4329 63.9583 16.6104 64.4141 16.6104C64.873 16.6104 65.2376 16.4313 65.5078 16.0732C65.778 15.7119 65.9131 15.2074 65.9131 14.5596C65.9131 13.9801 65.7747 13.5114 65.498 13.1533C65.2246 12.792 64.86 12.6113 64.4043 12.6113C63.9583 12.6113 63.5986 12.7887 63.3252 13.1436C63.0518 13.4984 62.915 14.0062 62.915 14.667ZM73.627 16.0049L74.6426 11.9668H75.5459L74.0078 17.25H73.2754L71.9912 13.2461L70.7412 17.25H70.0088L68.4756 11.9668H69.374L70.4141 15.9219L71.6445 11.9668H72.3721L73.627 16.0049ZM78.3232 11.9668L78.3525 12.6309C78.7562 12.123 79.2835 11.8691 79.9346 11.8691C81.0511 11.8691 81.6143 12.499 81.624 13.7588V17.25H80.7207V13.7539C80.7174 13.373 80.6296 13.0915 80.457 12.9092C80.2878 12.7269 80.0225 12.6357 79.6611 12.6357C79.3682 12.6357 79.111 12.7139 78.8896 12.8701C78.6683 13.0264 78.4958 13.2314 78.3721 13.4854V17.25H77.4688V11.9668H78.3232ZM84.9678 17.25H84.0645V9.75H84.9678V17.25ZM87.1787 14.5596C87.1787 14.042 87.2796 13.5765 87.4814 13.1631C87.6865 12.7497 87.9697 12.4307 88.3311 12.2061C88.6956 11.9814 89.1107 11.8691 89.5762 11.8691C90.2956 11.8691 90.8766 12.1182 91.3193 12.6162C91.7653 13.1143 91.9883 13.7767 91.9883 14.6035V14.667C91.9883 15.1813 91.889 15.6436 91.6904 16.0537C91.4951 16.4606 91.2135 16.778 90.8457 17.0059C90.4811 17.2337 90.0612 17.3477 89.5859 17.3477C88.8698 17.3477 88.2887 17.0986 87.8428 16.6006C87.4001 16.1025 87.1787 15.4434 87.1787 14.623V14.5596ZM88.0869 14.667C88.0869 15.2529 88.222 15.7233 88.4922 16.0781C88.7656 16.4329 89.1302 16.6104 89.5859 16.6104C90.0449 16.6104 90.4095 16.4313 90.6797 16.0732C90.9499 15.7119 91.085 15.2074 91.085 14.5596C91.085 13.9801 90.9466 13.5114 90.6699 13.1533C90.3965 12.792 90.0319 12.6113 89.5762 12.6113C89.1302 12.6113 88.7705 12.7887 88.4971 13.1436C88.2236 13.4984 88.0869 14.0062 88.0869 14.667ZM97.3828 17.25C97.3307 17.1458 97.2884 16.9603 97.2559 16.6934C96.8359 17.1296 96.3346 17.3477 95.752 17.3477C95.2311 17.3477 94.8031 17.2012 94.4678 16.9082C94.1357 16.612 93.9697 16.2376 93.9697 15.7852C93.9697 15.235 94.1781 14.8086 94.5947 14.5059C95.0146 14.1999 95.6038 14.0469 96.3623 14.0469H97.2412V13.6318C97.2412 13.3161 97.1468 13.0654 96.958 12.8799C96.7692 12.6911 96.4909 12.5967 96.123 12.5967C95.8008 12.5967 95.5306 12.6781 95.3125 12.8408C95.0944 13.0036 94.9854 13.2005 94.9854 13.4316H94.0771C94.0771 13.168 94.1699 12.9141 94.3555 12.6699C94.5443 12.4225 94.7982 12.2272 95.1172 12.084C95.4395 11.9408 95.7926 11.8691 96.1768 11.8691C96.7855 11.8691 97.2624 12.0221 97.6074 12.3281C97.9525 12.6309 98.1315 13.0492 98.1445 13.583V16.0146C98.1445 16.4997 98.2064 16.8854 98.3301 17.1719V17.25H97.3828ZM95.8838 16.5615C96.167 16.5615 96.4355 16.4883 96.6895 16.3418C96.9434 16.1953 97.1273 16.0049 97.2412 15.7705V14.6865H96.5332C95.4264 14.6865 94.873 15.0104 94.873 15.6582C94.873 15.9414 94.9674 16.1628 95.1562 16.3223C95.3451 16.4818 95.5876 16.5615 95.8838 16.5615ZM100.341 14.5645C100.341 13.7539 100.533 13.1029 100.917 12.6113C101.301 12.1165 101.804 11.8691 102.426 11.8691C103.044 11.8691 103.534 12.0807 103.896 12.5039V9.75H104.799V17.25H103.969L103.925 16.6836C103.563 17.1263 103.061 17.3477 102.416 17.3477C101.804 17.3477 101.304 17.097 100.917 16.5957C100.533 16.0944 100.341 15.4401 100.341 14.6328V14.5645ZM101.244 14.667C101.244 15.266 101.368 15.7347 101.615 16.0732C101.863 16.4118 102.204 16.5811 102.641 16.5811C103.214 16.5811 103.632 16.3239 103.896 15.8096V13.3828C103.625 12.8848 103.21 12.6357 102.65 12.6357C102.208 12.6357 101.863 12.8066 101.615 13.1484C101.368 13.4902 101.244 13.9964 101.244 14.667ZM110.446 14.5596C110.446 14.042 110.547 13.5765 110.749 13.1631C110.954 12.7497 111.237 12.4307 111.599 12.2061C111.963 11.9814 112.378 11.8691 112.844 11.8691C113.563 11.8691 114.144 12.1182 114.587 12.6162C115.033 13.1143 115.256 13.7767 115.256 14.6035V14.667C115.256 15.1813 115.157 15.6436 114.958 16.0537C114.763 16.4606 114.481 16.778 114.113 17.0059C113.749 17.2337 113.329 17.3477 112.854 17.3477C112.137 17.3477 111.556 17.0986 111.11 16.6006C110.668 16.1025 110.446 15.4434 110.446 14.623V14.5596ZM111.354 14.667C111.354 15.2529 111.49 15.7233 111.76 16.0781C112.033 16.4329 112.398 16.6104 112.854 16.6104C113.312 16.6104 113.677 16.4313 113.947 16.0732C114.217 15.7119 114.353 15.2074 114.353 14.5596C114.353 13.9801 114.214 13.5114 113.938 13.1533C113.664 12.792 113.299 12.6113 112.844 12.6113C112.398 12.6113 112.038 12.7887 111.765 13.1436C111.491 13.4984 111.354 14.0062 111.354 14.667ZM118.243 11.9668L118.272 12.6309C118.676 12.123 119.203 11.8691 119.854 11.8691C120.971 11.8691 121.534 12.499 121.544 13.7588V17.25H120.641V13.7539C120.637 13.373 120.549 13.0915 120.377 12.9092C120.208 12.7269 119.942 12.6357 119.581 12.6357C119.288 12.6357 119.031 12.7139 118.81 12.8701C118.588 13.0264 118.416 13.2314 118.292 13.4854V17.25H117.389V11.9668H118.243Z" fill="white"/>
<path d="M60.592 32.7669H66.208C66.24 32.8949 66.2667 33.0496 66.288 33.2309C66.3093 33.4123 66.32 33.5936 66.32 33.7749C66.32 34.5109 66.208 35.2043 65.984 35.8549C65.76 36.5056 65.408 37.0869 64.928 37.5989C64.416 38.1429 63.8027 38.5643 63.088 38.8629C62.3733 39.1616 61.5573 39.3109 60.64 39.3109C59.808 39.3109 59.024 39.1616 58.288 38.8629C57.552 38.5643 56.912 38.1483 56.368 37.6149C55.824 37.0816 55.392 36.4523 55.072 35.7269C54.752 34.9909 54.592 34.1909 54.592 33.3269C54.592 32.4629 54.752 31.6683 55.072 30.9429C55.392 30.2069 55.824 29.5723 56.368 29.0389C56.912 28.5056 57.552 28.0896 58.288 27.7909C59.024 27.4923 59.808 27.3429 60.64 27.3429C61.568 27.3429 62.3947 27.5029 63.12 27.8229C63.856 28.1429 64.4853 28.5856 65.008 29.1509L63.52 30.6069C63.1467 30.2123 62.7307 29.9136 62.272 29.7109C61.8133 29.4976 61.264 29.3909 60.624 29.3909C60.1013 29.3909 59.6053 29.4869 59.136 29.6789C58.6667 29.8603 58.256 30.1216 57.904 30.4629C57.552 30.8043 57.2693 31.2203 57.056 31.7109C56.8533 32.1909 56.752 32.7296 56.752 33.3269C56.752 33.9243 56.8533 34.4683 57.056 34.9589C57.2693 35.4389 57.552 35.8496 57.904 36.1909C58.2667 36.5323 58.6827 36.7989 59.152 36.9909C59.6213 37.1723 60.1227 37.2629 60.656 37.2629C61.264 37.2629 61.776 37.1776 62.192 37.0069C62.6187 36.8256 62.9813 36.5963 63.28 36.3189C63.4933 36.1269 63.6747 35.8869 63.824 35.5989C63.984 35.3003 64.1067 34.9696 64.192 34.6069H60.592V32.7669ZM71.483 30.9589C72.091 30.9589 72.6457 31.0656 73.147 31.2789C73.659 31.4816 74.0963 31.7696 74.459 32.1429C74.8323 32.5056 75.1203 32.9429 75.323 33.4549C75.5363 33.9669 75.643 34.5269 75.643 35.1349C75.643 35.7429 75.5363 36.3029 75.323 36.8149C75.1203 37.3269 74.8323 37.7696 74.459 38.1429C74.0963 38.5056 73.659 38.7936 73.147 39.0069C72.6457 39.2096 72.091 39.3109 71.483 39.3109C70.875 39.3109 70.315 39.2096 69.803 39.0069C69.3017 38.7936 68.8643 38.5056 68.491 38.1429C68.1283 37.7696 67.8403 37.3269 67.627 36.8149C67.4243 36.3029 67.323 35.7429 67.323 35.1349C67.323 34.5269 67.4243 33.9669 67.627 33.4549C67.8403 32.9429 68.1283 32.5056 68.491 32.1429C68.8643 31.7696 69.3017 31.4816 69.803 31.2789C70.315 31.0656 70.875 30.9589 71.483 30.9589ZM71.483 37.3749C71.7497 37.3749 72.0057 37.3269 72.251 37.2309C72.507 37.1243 72.731 36.9749 72.923 36.7829C73.115 36.5909 73.2643 36.3563 73.371 36.0789C73.4883 35.8016 73.547 35.4869 73.547 35.1349C73.547 34.7829 73.4883 34.4683 73.371 34.1909C73.2643 33.9136 73.115 33.6789 72.923 33.4869C72.731 33.2949 72.507 33.1509 72.251 33.0549C72.0057 32.9483 71.7497 32.8949 71.483 32.8949C71.2057 32.8949 70.9443 32.9483 70.699 33.0549C70.4537 33.1509 70.235 33.2949 70.043 33.4869C69.851 33.6789 69.6963 33.9136 69.579 34.1909C69.4723 34.4683 69.419 34.7829 69.419 35.1349C69.419 35.4869 69.4723 35.8016 69.579 36.0789C69.6963 36.3563 69.851 36.5909 70.043 36.7829C70.235 36.9749 70.4537 37.1243 70.699 37.2309C70.9443 37.3269 71.2057 37.3749 71.483 37.3749ZM80.7018 30.9589C81.3098 30.9589 81.8644 31.0656 82.3658 31.2789C82.8778 31.4816 83.3151 31.7696 83.6778 32.1429C84.0511 32.5056 84.3391 32.9429 84.5417 33.4549C84.7551 33.9669 84.8618 34.5269 84.8618 35.1349C84.8618 35.7429 84.7551 36.3029 84.5417 36.8149C84.3391 37.3269 84.0511 37.7696 83.6778 38.1429C83.3151 38.5056 82.8778 38.7936 82.3658 39.0069C81.8644 39.2096 81.3098 39.3109 80.7018 39.3109C80.0938 39.3109 79.5338 39.2096 79.0218 39.0069C78.5204 38.7936 78.0831 38.5056 77.7098 38.1429C77.3471 37.7696 77.0591 37.3269 76.8458 36.8149C76.6431 36.3029 76.5418 35.7429 76.5418 35.1349C76.5418 34.5269 76.6431 33.9669 76.8458 33.4549C77.0591 32.9429 77.3471 32.5056 77.7098 32.1429C78.0831 31.7696 78.5204 31.4816 79.0218 31.2789C79.5338 31.0656 80.0938 30.9589 80.7018 30.9589ZM80.7018 37.3749C80.9684 37.3749 81.2244 37.3269 81.4698 37.2309C81.7258 37.1243 81.9498 36.9749 82.1418 36.7829C82.3338 36.5909 82.4831 36.3563 82.5898 36.0789C82.7071 35.8016 82.7658 35.4869 82.7658 35.1349C82.7658 34.7829 82.7071 34.4683 82.5898 34.1909C82.4831 33.9136 82.3338 33.6789 82.1418 33.4869C81.9498 33.2949 81.7258 33.1509 81.4698 33.0549C81.2244 32.9483 80.9684 32.8949 80.7018 32.8949C80.4244 32.8949 80.1631 32.9483 79.9178 33.0549C79.6724 33.1509 79.4538 33.2949 79.2618 33.4869C79.0698 33.6789 78.9151 33.9136 78.7978 34.1909C78.6911 34.4683 78.6378 34.7829 78.6378 35.1349C78.6378 35.4869 78.6911 35.8016 78.7978 36.0789C78.9151 36.3563 79.0698 36.5909 79.2618 36.7829C79.4538 36.9749 79.6724 37.1243 79.9178 37.2309C80.1631 37.3269 80.4244 37.3749 80.7018 37.3749ZM89.8245 42.7669C89.2698 42.7669 88.7738 42.6923 88.3365 42.5429C87.9098 42.4043 87.5365 42.2176 87.2165 41.9829C86.8965 41.7589 86.6298 41.5083 86.4165 41.2309C86.2032 40.9536 86.0485 40.6763 85.9525 40.3989L87.9525 39.5989C88.1018 40.0149 88.3472 40.3349 88.6885 40.5589C89.0298 40.7936 89.4085 40.9109 89.8245 40.9109C90.4858 40.9109 91.0085 40.7029 91.3925 40.2869C91.7765 39.8816 91.9685 39.3109 91.9685 38.5749V38.0309H91.8405C91.5952 38.3723 91.2698 38.6443 90.8645 38.8469C90.4698 39.0389 90.0005 39.1349 89.4565 39.1349C88.9872 39.1349 88.5285 39.0389 88.0805 38.8469C87.6432 38.6549 87.2538 38.3829 86.9125 38.0309C86.5712 37.6683 86.2938 37.2363 86.0805 36.7349C85.8672 36.2336 85.7605 35.6736 85.7605 35.0549C85.7605 34.4363 85.8672 33.8763 86.0805 33.3749C86.2938 32.8629 86.5712 32.4309 86.9125 32.0789C87.2538 31.7163 87.6432 31.4389 88.0805 31.2469C88.5285 31.0549 88.9872 30.9589 89.4565 30.9589C90.0005 30.9589 90.4698 31.0603 90.8645 31.2629C91.2698 31.4549 91.5952 31.7216 91.8405 32.0629H91.9685V31.2149H93.9685V38.4949C93.9685 39.1563 93.8672 39.7483 93.6645 40.2709C93.4618 40.8043 93.1792 41.2523 92.8165 41.6149C92.4538 41.9883 92.0165 42.2709 91.5045 42.4629C91.0032 42.6656 90.4432 42.7669 89.8245 42.7669ZM89.9045 37.2469C90.1605 37.2469 90.4112 37.1989 90.6565 37.1029C90.9125 37.0069 91.1365 36.8683 91.3285 36.6869C91.5205 36.4949 91.6752 36.2656 91.7925 35.9989C91.9098 35.7216 91.9685 35.4069 91.9685 35.0549C91.9685 34.7029 91.9098 34.3883 91.7925 34.1109C91.6752 33.8336 91.5205 33.6043 91.3285 33.4229C91.1365 33.2309 90.9125 33.0869 90.6565 32.9909C90.4112 32.8949 90.1605 32.8469 89.9045 32.8469C89.6485 32.8469 89.3978 32.8949 89.1525 32.9909C88.9072 33.0869 88.6885 33.2309 88.4965 33.4229C88.3045 33.6149 88.1498 33.8496 88.0325 34.1269C87.9152 34.3936 87.8565 34.7029 87.8565 35.0549C87.8565 35.4069 87.9152 35.7216 88.0325 35.9989C88.1498 36.2656 88.3045 36.4949 88.4965 36.6869C88.6885 36.8683 88.9072 37.0069 89.1525 37.1029C89.3978 37.1989 89.6485 37.2469 89.9045 37.2469ZM95.7554 39.0549V27.5989H97.8514V39.0549H95.7554ZM106.992 37.1669C106.629 37.8069 106.139 38.3243 105.52 38.7189C104.912 39.1136 104.165 39.3109 103.28 39.3109C102.683 39.3109 102.128 39.2096 101.616 39.0069C101.115 38.7936 100.677 38.5003 100.304 38.1269C99.9305 37.7536 99.6372 37.3163 99.4239 36.8149C99.2212 36.3029 99.1199 35.7429 99.1199 35.1349C99.1199 34.5696 99.2212 34.0363 99.4239 33.5349C99.6265 33.0229 99.9092 32.5803 100.272 32.2069C100.635 31.8229 101.061 31.5189 101.552 31.2949C102.053 31.0709 102.603 30.9589 103.2 30.9589C103.829 30.9589 104.389 31.0656 104.88 31.2789C105.371 31.4816 105.781 31.7696 106.112 32.1429C106.443 32.5056 106.693 32.9376 106.864 33.4389C107.035 33.9403 107.12 34.4843 107.12 35.0709C107.12 35.1456 107.12 35.2096 107.12 35.2629C107.109 35.3269 107.104 35.3856 107.104 35.4389C107.093 35.4923 107.088 35.5509 107.088 35.6149H101.184C101.227 35.9349 101.312 36.2123 101.44 36.4469C101.579 36.6709 101.744 36.8629 101.936 37.0229C102.139 37.1723 102.357 37.2843 102.592 37.3589C102.827 37.4229 103.067 37.4549 103.312 37.4549C103.792 37.4549 104.187 37.3483 104.496 37.1349C104.816 36.9109 105.067 36.6336 105.248 36.3029L106.992 37.1669ZM105.088 34.1269C105.077 33.9883 105.029 33.8336 104.944 33.6629C104.869 33.4923 104.752 33.3323 104.592 33.1829C104.443 33.0336 104.251 32.9109 104.016 32.8149C103.792 32.7189 103.52 32.6709 103.2 32.6709C102.752 32.6709 102.357 32.7989 102.016 33.0549C101.675 33.3109 101.435 33.6683 101.296 34.1269H105.088ZM112.23 39.0549V27.5989H116.262C116.806 27.5989 117.313 27.6896 117.782 27.8709C118.262 28.0416 118.678 28.2869 119.03 28.6069C119.382 28.9269 119.659 29.3109 119.862 29.7589C120.065 30.1963 120.166 30.6816 120.166 31.2149C120.166 31.7589 120.065 32.2549 119.862 32.7029C119.659 33.1403 119.382 33.5189 119.03 33.8389C118.678 34.1589 118.262 34.4096 117.782 34.5909C117.313 34.7616 116.806 34.8469 116.262 34.8469H114.39V39.0549H112.23ZM116.294 32.7989C116.859 32.7989 117.286 32.6389 117.574 32.3189C117.862 31.9989 118.006 31.6309 118.006 31.2149C118.006 31.0123 117.969 30.8149 117.894 30.6229C117.83 30.4309 117.723 30.2656 117.574 30.1269C117.435 29.9776 117.259 29.8603 117.046 29.7749C116.833 29.6896 116.582 29.6469 116.294 29.6469H114.39V32.7989H116.294ZM121.521 39.0549V27.5989H123.617V39.0549H121.521ZM130.166 38.2229H130.038C129.792 38.5216 129.494 38.7776 129.141 38.9909C128.8 39.2043 128.358 39.3109 127.814 39.3109C127.408 39.3109 127.024 39.2416 126.662 39.1029C126.31 38.9749 126 38.7936 125.734 38.5589C125.467 38.3243 125.259 38.0416 125.11 37.7109C124.96 37.3803 124.886 37.0176 124.886 36.6229C124.886 36.2176 124.966 35.8549 125.126 35.5349C125.286 35.2043 125.51 34.9216 125.798 34.6869C126.086 34.4523 126.422 34.2763 126.806 34.1589C127.2 34.0309 127.627 33.9669 128.086 33.9669C128.598 33.9669 129.019 34.0096 129.35 34.0949C129.68 34.1696 129.952 34.2496 130.166 34.3349V34.0949C130.166 33.6789 130 33.3376 129.67 33.0709C129.339 32.7936 128.928 32.6549 128.438 32.6549C127.712 32.6549 127.099 32.9589 126.598 33.5669L125.078 32.5269C125.91 31.4816 127.046 30.9589 128.486 30.9589C129.702 30.9589 130.63 31.2469 131.27 31.8229C131.91 32.3883 132.23 33.2309 132.23 34.3509V39.0549H130.166V38.2229ZM130.166 35.8709C129.92 35.7536 129.664 35.6629 129.398 35.5989C129.142 35.5243 128.859 35.4869 128.549 35.4869C128.048 35.4869 127.659 35.5989 127.382 35.8229C127.115 36.0363 126.982 36.3029 126.982 36.6229C126.982 36.9429 127.11 37.1989 127.366 37.3909C127.632 37.5829 127.936 37.6789 128.278 37.6789C128.555 37.6789 128.811 37.6309 129.046 37.5349C129.28 37.4283 129.478 37.2949 129.638 37.1349C129.808 36.9643 129.936 36.7723 130.022 36.5589C130.118 36.3349 130.166 36.1056 130.166 35.8709ZM136.204 38.6709L132.908 31.2149H135.292L137.276 35.9669H137.388L139.292 31.2149H141.628L136.716 42.5109H134.46L136.204 38.6709Z" fill="white"/>
<path d="M12.5 38.487V11.5156C12.5 10.5744 13.0457 9.76086 13.8375 9.37476L29.4392 24.9967L13.8312 40.6248C13.0428 40.2375 12.5 39.4258 12.5 38.487Z" fill="#00D5FF"/>
<path d="M34.3924 29.9527L17.333 39.8148L30.7874 26.343L34.3924 29.9527Z" fill="#F73548"/>
<path d="M39.6932 23.1109C40.2606 23.5458 40.6266 24.231 40.6266 25.0017C40.6266 25.7609 40.2717 26.4369 39.7189 26.8726L36.0953 28.9675L32.1299 24.9971L36.0926 21.0293L39.6932 23.1109Z" fill="#FFCE00"/>
<path d="M17.3408 10.189L34.3876 20.0436L30.7852 23.6506L17.3408 10.189Z" fill="#00F076"/>
</svg>
