<svg width="167" height="50" viewBox="0 0 167 50" fill="none" xmlns="http://www.w3.org/2000/svg">
<path d="M0.390625 7.8125C0.390625 3.71351 3.71351 0.390625 7.8125 0.390625H158.594C162.693 0.390625 166.016 3.71351 166.016 7.8125V42.1875C166.016 46.2865 162.693 49.6094 158.594 49.6094H7.8125C3.71351 49.6094 0.390625 46.2865 0.390625 42.1875V7.8125Z" fill="black" stroke="#979797" stroke-width="0.78125"/>
<path d="M56.8252 17.25V10.1406H58.832C59.4505 10.1406 59.9974 10.2773 60.4727 10.5508C60.9479 10.8242 61.3141 11.2132 61.5713 11.7178C61.8317 12.2223 61.9635 12.8018 61.9668 13.4561V13.9102C61.9668 14.5807 61.8366 15.1683 61.5762 15.6729C61.319 16.1774 60.9495 16.5648 60.4678 16.835C59.9893 17.1051 59.431 17.2435 58.793 17.25H56.8252ZM57.7627 10.9121V16.4834H58.749C59.4717 16.4834 60.0332 16.2588 60.4336 15.8096C60.8372 15.3604 61.0391 14.7207 61.0391 13.8906V13.4756C61.0391 12.6683 60.8486 12.0417 60.4678 11.5957C60.0902 11.1465 59.5531 10.9186 58.8564 10.9121H57.7627ZM64.0068 14.5596C64.0068 14.042 64.1077 13.5765 64.3096 13.1631C64.5146 12.7497 64.7979 12.4307 65.1592 12.2061C65.5238 11.9814 65.9388 11.8691 66.4043 11.8691C67.1237 11.8691 67.7048 12.1182 68.1475 12.6162C68.5934 13.1143 68.8164 13.7767 68.8164 14.6035V14.667C68.8164 15.1813 68.7171 15.6436 68.5186 16.0537C68.3232 16.4606 68.0417 16.778 67.6738 17.0059C67.3092 17.2337 66.8893 17.3477 66.4141 17.3477C65.6979 17.3477 65.1169 17.0986 64.6709 16.6006C64.2282 16.1025 64.0068 15.4434 64.0068 14.623V14.5596ZM64.915 14.667C64.915 15.2529 65.0501 15.7233 65.3203 16.0781C65.5938 16.4329 65.9583 16.6104 66.4141 16.6104C66.873 16.6104 67.2376 16.4313 67.5078 16.0732C67.778 15.7119 67.9131 15.2074 67.9131 14.5596C67.9131 13.9801 67.7747 13.5114 67.498 13.1533C67.2246 12.792 66.86 12.6113 66.4043 12.6113C65.9583 12.6113 65.5986 12.7887 65.3252 13.1436C65.0518 13.4984 64.915 14.0062 64.915 14.667ZM75.627 16.0049L76.6426 11.9668H77.5459L76.0078 17.25H75.2754L73.9912 13.2461L72.7412 17.25H72.0088L70.4756 11.9668H71.374L72.4141 15.9219L73.6445 11.9668H74.3721L75.627 16.0049ZM80.3232 11.9668L80.3525 12.6309C80.7562 12.123 81.2835 11.8691 81.9346 11.8691C83.0511 11.8691 83.6143 12.499 83.624 13.7588V17.25H82.7207V13.7539C82.7174 13.373 82.6296 13.0915 82.457 12.9092C82.2878 12.7269 82.0225 12.6357 81.6611 12.6357C81.3682 12.6357 81.111 12.7139 80.8896 12.8701C80.6683 13.0264 80.4958 13.2314 80.3721 13.4854V17.25H79.4688V11.9668H80.3232ZM86.9678 17.25H86.0645V9.75H86.9678V17.25ZM89.1787 14.5596C89.1787 14.042 89.2796 13.5765 89.4814 13.1631C89.6865 12.7497 89.9697 12.4307 90.3311 12.2061C90.6956 11.9814 91.1107 11.8691 91.5762 11.8691C92.2956 11.8691 92.8766 12.1182 93.3193 12.6162C93.7653 13.1143 93.9883 13.7767 93.9883 14.6035V14.667C93.9883 15.1813 93.889 15.6436 93.6904 16.0537C93.4951 16.4606 93.2135 16.778 92.8457 17.0059C92.4811 17.2337 92.0612 17.3477 91.5859 17.3477C90.8698 17.3477 90.2887 17.0986 89.8428 16.6006C89.4001 16.1025 89.1787 15.4434 89.1787 14.623V14.5596ZM90.0869 14.667C90.0869 15.2529 90.222 15.7233 90.4922 16.0781C90.7656 16.4329 91.1302 16.6104 91.5859 16.6104C92.0449 16.6104 92.4095 16.4313 92.6797 16.0732C92.9499 15.7119 93.085 15.2074 93.085 14.5596C93.085 13.9801 92.9466 13.5114 92.6699 13.1533C92.3965 12.792 92.0319 12.6113 91.5762 12.6113C91.1302 12.6113 90.7705 12.7887 90.4971 13.1436C90.2236 13.4984 90.0869 14.0062 90.0869 14.667ZM99.3828 17.25C99.3307 17.1458 99.2884 16.9603 99.2559 16.6934C98.8359 17.1296 98.3346 17.3477 97.752 17.3477C97.2311 17.3477 96.8031 17.2012 96.4678 16.9082C96.1357 16.612 95.9697 16.2376 95.9697 15.7852C95.9697 15.235 96.1781 14.8086 96.5947 14.5059C97.0146 14.1999 97.6038 14.0469 98.3623 14.0469H99.2412V13.6318C99.2412 13.3161 99.1468 13.0654 98.958 12.8799C98.7692 12.6911 98.4909 12.5967 98.123 12.5967C97.8008 12.5967 97.5306 12.6781 97.3125 12.8408C97.0944 13.0036 96.9854 13.2005 96.9854 13.4316H96.0771C96.0771 13.168 96.1699 12.9141 96.3555 12.6699C96.5443 12.4225 96.7982 12.2272 97.1172 12.084C97.4395 11.9408 97.7926 11.8691 98.1768 11.8691C98.7855 11.8691 99.2624 12.0221 99.6074 12.3281C99.9525 12.6309 100.132 13.0492 100.145 13.583V16.0146C100.145 16.4997 100.206 16.8854 100.33 17.1719V17.25H99.3828ZM97.8838 16.5615C98.167 16.5615 98.4355 16.4883 98.6895 16.3418C98.9434 16.1953 99.1273 16.0049 99.2412 15.7705V14.6865H98.5332C97.4264 14.6865 96.873 15.0104 96.873 15.6582C96.873 15.9414 96.9674 16.1628 97.1562 16.3223C97.3451 16.4818 97.5876 16.5615 97.8838 16.5615ZM102.341 14.5645C102.341 13.7539 102.533 13.1029 102.917 12.6113C103.301 12.1165 103.804 11.8691 104.426 11.8691C105.044 11.8691 105.534 12.0807 105.896 12.5039V9.75H106.799V17.25H105.969L105.925 16.6836C105.563 17.1263 105.061 17.3477 104.416 17.3477C103.804 17.3477 103.304 17.097 102.917 16.5957C102.533 16.0944 102.341 15.4401 102.341 14.6328V14.5645ZM103.244 14.667C103.244 15.266 103.368 15.7347 103.615 16.0732C103.863 16.4118 104.204 16.5811 104.641 16.5811C105.214 16.5811 105.632 16.3239 105.896 15.8096V13.3828C105.625 12.8848 105.21 12.6357 104.65 12.6357C104.208 12.6357 103.863 12.8066 103.615 13.1484C103.368 13.4902 103.244 13.9964 103.244 14.667ZM112.446 14.5596C112.446 14.042 112.547 13.5765 112.749 13.1631C112.954 12.7497 113.237 12.4307 113.599 12.2061C113.963 11.9814 114.378 11.8691 114.844 11.8691C115.563 11.8691 116.144 12.1182 116.587 12.6162C117.033 13.1143 117.256 13.7767 117.256 14.6035V14.667C117.256 15.1813 117.157 15.6436 116.958 16.0537C116.763 16.4606 116.481 16.778 116.113 17.0059C115.749 17.2337 115.329 17.3477 114.854 17.3477C114.137 17.3477 113.556 17.0986 113.11 16.6006C112.668 16.1025 112.446 15.4434 112.446 14.623V14.5596ZM113.354 14.667C113.354 15.2529 113.49 15.7233 113.76 16.0781C114.033 16.4329 114.398 16.6104 114.854 16.6104C115.312 16.6104 115.677 16.4313 115.947 16.0732C116.217 15.7119 116.353 15.2074 116.353 14.5596C116.353 13.9801 116.214 13.5114 115.938 13.1533C115.664 12.792 115.299 12.6113 114.844 12.6113C114.398 12.6113 114.038 12.7887 113.765 13.1436C113.491 13.4984 113.354 14.0062 113.354 14.667ZM120.243 11.9668L120.272 12.6309C120.676 12.123 121.203 11.8691 121.854 11.8691C122.971 11.8691 123.534 12.499 123.544 13.7588V17.25H122.641V13.7539C122.637 13.373 122.549 13.0915 122.377 12.9092C122.208 12.7269 121.942 12.6357 121.581 12.6357C121.288 12.6357 121.031 12.7139 120.81 12.8701C120.588 13.0264 120.416 13.2314 120.292 13.4854V17.25H119.389V11.9668H120.243ZM130.612 10.6875V11.9668H131.599V12.665H130.612V15.9414C130.612 16.153 130.656 16.3125 130.744 16.4199C130.832 16.5241 130.982 16.5762 131.193 16.5762C131.298 16.5762 131.441 16.5566 131.623 16.5176V17.25C131.385 17.3151 131.154 17.3477 130.93 17.3477C130.526 17.3477 130.222 17.2256 130.017 16.9814C129.812 16.7373 129.709 16.3906 129.709 15.9414V12.665H128.747V11.9668H129.709V10.6875H130.612ZM134.562 12.6064C134.962 12.1149 135.483 11.8691 136.124 11.8691C137.241 11.8691 137.804 12.499 137.813 13.7588V17.25H136.91V13.7539C136.907 13.373 136.819 13.0915 136.646 12.9092C136.477 12.7269 136.212 12.6357 135.851 12.6357C135.558 12.6357 135.3 12.7139 135.079 12.8701C134.858 13.0264 134.685 13.2314 134.562 13.4854V17.25H133.658V9.75H134.562V12.6064ZM142.358 17.3477C141.642 17.3477 141.06 17.1133 140.61 16.6445C140.161 16.1725 139.937 15.5426 139.937 14.7549V14.5889C139.937 14.0648 140.036 13.5977 140.234 13.1875C140.436 12.7741 140.716 12.4518 141.074 12.2207C141.436 11.9863 141.826 11.8691 142.246 11.8691C142.933 11.8691 143.467 12.0954 143.848 12.5479C144.229 13.0003 144.419 13.6481 144.419 14.4912V14.8672H140.84C140.853 15.388 141.004 15.8096 141.294 16.1318C141.587 16.4508 141.958 16.6104 142.407 16.6104C142.726 16.6104 142.996 16.5452 143.218 16.415C143.439 16.2848 143.633 16.1123 143.799 15.8975L144.351 16.3271C143.908 17.0075 143.244 17.3477 142.358 17.3477ZM142.246 12.6113C141.882 12.6113 141.576 12.7448 141.328 13.0117C141.081 13.2754 140.928 13.6465 140.869 14.125H143.516V14.0566C143.49 13.5977 143.366 13.2428 143.145 12.9922C142.923 12.7383 142.624 12.6113 142.246 12.6113Z" fill="white"/>
<path d="M60.496 27.5989H62.96L67.264 39.0549H64.88L63.936 36.3189H59.52L58.576 39.0549H56.192L60.496 27.5989ZM63.232 34.3349L62.208 31.4709L61.792 30.0789H61.664L61.248 31.4709L60.224 34.3349H63.232ZM68.8633 31.2149H70.8313V32.1589H70.9593C71.1513 31.8283 71.4499 31.5456 71.8553 31.3109C72.2606 31.0763 72.7619 30.9589 73.3593 30.9589C73.8606 30.9589 74.3353 31.0656 74.7833 31.2789C75.2419 31.4816 75.6419 31.7696 75.9833 32.1429C76.3353 32.5056 76.6126 32.9429 76.8153 33.4549C77.0179 33.9669 77.1193 34.5269 77.1193 35.1349C77.1193 35.7429 77.0179 36.3029 76.8153 36.8149C76.6126 37.3269 76.3353 37.7696 75.9833 38.1429C75.6419 38.5056 75.2419 38.7936 74.7833 39.0069C74.3353 39.2096 73.8606 39.3109 73.3593 39.3109C72.7619 39.3109 72.2606 39.1936 71.8553 38.9589C71.4499 38.7243 71.1513 38.4416 70.9593 38.1109H70.8313L70.9593 39.2309V42.5109H68.8633V31.2149ZM72.9273 37.3749C73.2046 37.3749 73.4659 37.3216 73.7113 37.2149C73.9673 37.1083 74.1913 36.9589 74.3833 36.7669C74.5753 36.5749 74.7299 36.3403 74.8473 36.0629C74.9646 35.7856 75.0233 35.4763 75.0233 35.1349C75.0233 34.7936 74.9646 34.4843 74.8473 34.2069C74.7299 33.9296 74.5753 33.6949 74.3833 33.5029C74.1913 33.3109 73.9673 33.1616 73.7113 33.0549C73.4659 32.9483 73.2046 32.8949 72.9273 32.8949C72.6499 32.8949 72.3833 32.9483 72.1273 33.0549C71.8819 33.1509 71.6633 33.2949 71.4713 33.4869C71.2793 33.6789 71.1246 33.9136 71.0073 34.1909C70.8899 34.4683 70.8313 34.7829 70.8313 35.1349C70.8313 35.4869 70.8899 35.8016 71.0073 36.0789C71.1246 36.3563 71.2793 36.5909 71.4713 36.7829C71.6633 36.9749 71.8819 37.1243 72.1273 37.2309C72.3833 37.3269 72.6499 37.3749 72.9273 37.3749ZM78.7383 31.2149H80.7063V32.1589H80.8343C81.0263 31.8283 81.3249 31.5456 81.7303 31.3109C82.1356 31.0763 82.6369 30.9589 83.2343 30.9589C83.7356 30.9589 84.2103 31.0656 84.6583 31.2789C85.1169 31.4816 85.5169 31.7696 85.8583 32.1429C86.2103 32.5056 86.4876 32.9429 86.6903 33.4549C86.8929 33.9669 86.9943 34.5269 86.9943 35.1349C86.9943 35.7429 86.8929 36.3029 86.6903 36.8149C86.4876 37.3269 86.2103 37.7696 85.8583 38.1429C85.5169 38.5056 85.1169 38.7936 84.6583 39.0069C84.2103 39.2096 83.7356 39.3109 83.2343 39.3109C82.6369 39.3109 82.1356 39.1936 81.7303 38.9589C81.3249 38.7243 81.0263 38.4416 80.8343 38.1109H80.7063L80.8343 39.2309V42.5109H78.7383V31.2149ZM82.8023 37.3749C83.0796 37.3749 83.3409 37.3216 83.5863 37.2149C83.8423 37.1083 84.0663 36.9589 84.2583 36.7669C84.4503 36.5749 84.6049 36.3403 84.7223 36.0629C84.8396 35.7856 84.8983 35.4763 84.8983 35.1349C84.8983 34.7936 84.8396 34.4843 84.7223 34.2069C84.6049 33.9296 84.4503 33.6949 84.2583 33.5029C84.0663 33.3109 83.8423 33.1616 83.5863 33.0549C83.3409 32.9483 83.0796 32.8949 82.8023 32.8949C82.5249 32.8949 82.2583 32.9483 82.0023 33.0549C81.7569 33.1509 81.5383 33.2949 81.3463 33.4869C81.1543 33.6789 80.9996 33.9136 80.8823 34.1909C80.7649 34.4683 80.7063 34.7829 80.7063 35.1349C80.7063 35.4869 80.7649 35.8016 80.8823 36.0789C80.9996 36.3563 81.1543 36.5909 81.3463 36.7829C81.5383 36.9749 81.7569 37.1243 82.0023 37.2309C82.2583 37.3269 82.5249 37.3749 82.8023 37.3749ZM96.1248 39.3109C95.6341 39.3109 95.1648 39.2416 94.7168 39.1029C94.2688 38.9643 93.8581 38.7563 93.4848 38.4789C93.1114 38.2016 92.7861 37.8656 92.5088 37.4709C92.2314 37.0656 92.0128 36.5963 91.8528 36.0629L93.8848 35.2629C94.0341 35.8389 94.2954 36.3189 94.6688 36.7029C95.0421 37.0763 95.5328 37.2629 96.1408 37.2629C96.3648 37.2629 96.5781 37.2363 96.7808 37.1829C96.9941 37.1189 97.1808 37.0336 97.3408 36.9269C97.5114 36.8096 97.6448 36.6656 97.7408 36.4949C97.8368 36.3243 97.8848 36.1269 97.8848 35.9029C97.8848 35.6896 97.8474 35.4976 97.7728 35.3269C97.6981 35.1563 97.5701 34.9963 97.3888 34.8469C97.2181 34.6976 96.9888 34.5536 96.7008 34.4149C96.4234 34.2763 96.0768 34.1323 95.6608 33.9829L94.9568 33.7269C94.6474 33.6203 94.3328 33.4763 94.0128 33.2949C93.7034 33.1136 93.4208 32.8949 93.1648 32.6389C92.9088 32.3829 92.6954 32.0843 92.5247 31.7429C92.3648 31.3909 92.2848 30.9963 92.2848 30.5589C92.2848 30.1109 92.3701 29.6949 92.5408 29.3109C92.7221 28.9163 92.9728 28.5749 93.2928 28.2869C93.6234 27.9883 94.0128 27.7589 94.4608 27.5989C94.9194 27.4283 95.4261 27.3429 95.9808 27.3429C96.5568 27.3429 97.0528 27.4229 97.4688 27.5829C97.8954 27.7323 98.2528 27.9296 98.5408 28.1749C98.8394 28.4096 99.0794 28.6709 99.2608 28.9589C99.4421 29.2469 99.5754 29.5189 99.6608 29.7749L97.7568 30.5749C97.6501 30.2549 97.4528 29.9669 97.1648 29.7109C96.8874 29.4549 96.5034 29.3269 96.0128 29.3269C95.5434 29.3269 95.1541 29.4389 94.8448 29.6629C94.5354 29.8763 94.3808 30.1589 94.3808 30.5109C94.3808 30.8523 94.5301 31.1456 94.8288 31.3909C95.1274 31.6256 95.6021 31.8549 96.2528 32.0789L96.9728 32.3189C97.4314 32.4789 97.8474 32.6656 98.2208 32.8789C98.6048 33.0816 98.9301 33.3269 99.1968 33.6149C99.4741 33.9029 99.6821 34.2336 99.8208 34.6069C99.9701 34.9696 100.045 35.3909 100.045 35.8709C100.045 36.4683 99.9221 36.9856 99.6768 37.4229C99.4421 37.8496 99.1381 38.2016 98.7648 38.4789C98.3914 38.7563 97.9701 38.9643 97.5008 39.1029C97.0314 39.2416 96.5728 39.3109 96.1248 39.3109ZM102.526 33.0069H101.15V31.2149H102.526V28.8149H104.622V31.2149H106.542V33.0069H104.622V36.0469C104.622 36.2283 104.638 36.3989 104.67 36.5589C104.712 36.7083 104.787 36.8363 104.894 36.9429C105.043 37.1136 105.256 37.1989 105.534 37.1989C105.715 37.1989 105.859 37.1829 105.966 37.1509C106.072 37.1083 106.174 37.0549 106.27 36.9909L106.862 38.8309C106.616 38.9483 106.35 39.0336 106.062 39.0869C105.784 39.1509 105.475 39.1829 105.134 39.1829C104.739 39.1829 104.382 39.1243 104.062 39.0069C103.752 38.8789 103.491 38.7083 103.278 38.4949C102.776 38.0149 102.526 37.3323 102.526 36.4469V33.0069ZM112.217 30.9589C112.825 30.9589 113.38 31.0656 113.881 31.2789C114.393 31.4816 114.831 31.7696 115.193 32.1429C115.567 32.5056 115.855 32.9429 116.057 33.4549C116.271 33.9669 116.377 34.5269 116.377 35.1349C116.377 35.7429 116.271 36.3029 116.057 36.8149C115.855 37.3269 115.567 37.7696 115.193 38.1429C114.831 38.5056 114.393 38.7936 113.881 39.0069C113.38 39.2096 112.825 39.3109 112.217 39.3109C111.609 39.3109 111.049 39.2096 110.537 39.0069C110.036 38.7936 109.599 38.5056 109.225 38.1429C108.863 37.7696 108.575 37.3269 108.361 36.8149C108.159 36.3029 108.057 35.7429 108.057 35.1349C108.057 34.5269 108.159 33.9669 108.361 33.4549C108.575 32.9429 108.863 32.5056 109.225 32.1429C109.599 31.7696 110.036 31.4816 110.537 31.2789C111.049 31.0656 111.609 30.9589 112.217 30.9589ZM112.217 37.3749C112.484 37.3749 112.74 37.3269 112.985 37.2309C113.241 37.1243 113.465 36.9749 113.657 36.7829C113.849 36.5909 113.999 36.3563 114.105 36.0789C114.223 35.8016 114.281 35.4869 114.281 35.1349C114.281 34.7829 114.223 34.4683 114.105 34.1909C113.999 33.9136 113.849 33.6789 113.657 33.4869C113.465 33.2949 113.241 33.1509 112.985 33.0549C112.74 32.9483 112.484 32.8949 112.217 32.8949C111.94 32.8949 111.679 32.9483 111.433 33.0549C111.188 33.1509 110.969 33.2949 110.777 33.4869C110.585 33.6789 110.431 33.9136 110.313 34.1909C110.207 34.4683 110.153 34.7829 110.153 35.1349C110.153 35.4869 110.207 35.8016 110.313 36.0789C110.431 36.3563 110.585 36.5909 110.777 36.7829C110.969 36.9749 111.188 37.1243 111.433 37.2309C111.679 37.3269 111.94 37.3749 112.217 37.3749ZM118.068 31.2149H120.036V32.3029H120.164C120.26 32.1109 120.388 31.9349 120.548 31.7749C120.708 31.6149 120.884 31.4763 121.076 31.3589C121.279 31.2416 121.492 31.1509 121.716 31.0869C121.951 31.0229 122.18 30.9909 122.404 30.9909C122.681 30.9909 122.916 31.0176 123.108 31.0709C123.311 31.1243 123.481 31.1936 123.62 31.2789L123.06 33.1829C122.932 33.1189 122.788 33.0709 122.628 33.0389C122.479 32.9963 122.292 32.9749 122.068 32.9749C121.78 32.9749 121.519 33.0336 121.284 33.1509C121.049 33.2576 120.847 33.4123 120.676 33.6149C120.516 33.8176 120.388 34.0576 120.292 34.3349C120.207 34.6016 120.164 34.8949 120.164 35.2149V39.0549H118.068V31.2149ZM132.023 37.1669C131.66 37.8069 131.17 38.3243 130.551 38.7189C129.943 39.1136 129.196 39.3109 128.311 39.3109C127.714 39.3109 127.159 39.2096 126.647 39.0069C126.146 38.7936 125.708 38.5003 125.335 38.1269C124.962 37.7536 124.668 37.3163 124.455 36.8149C124.252 36.3029 124.151 35.7429 124.151 35.1349C124.151 34.5696 124.252 34.0363 124.455 33.5349C124.658 33.0229 124.94 32.5803 125.303 32.2069C125.666 31.8229 126.092 31.5189 126.583 31.2949C127.084 31.0709 127.634 30.9589 128.231 30.9589C128.86 30.9589 129.42 31.0656 129.911 31.2789C130.402 31.4816 130.812 31.7696 131.143 32.1429C131.474 32.5056 131.724 32.9376 131.895 33.4389C132.066 33.9403 132.151 34.4843 132.151 35.0709C132.151 35.1456 132.151 35.2096 132.151 35.2629C132.14 35.3269 132.135 35.3856 132.135 35.4389C132.124 35.4923 132.119 35.5509 132.119 35.6149H126.215C126.258 35.9349 126.343 36.2123 126.471 36.4469C126.61 36.6709 126.775 36.8629 126.967 37.0229C127.17 37.1723 127.388 37.2843 127.623 37.3589C127.858 37.4229 128.098 37.4549 128.343 37.4549C128.823 37.4549 129.218 37.3483 129.527 37.1349C129.847 36.9109 130.098 36.6336 130.279 36.3029L132.023 37.1669ZM130.119 34.1269C130.108 33.9883 130.06 33.8336 129.975 33.6629C129.9 33.4923 129.783 33.3323 129.623 33.1829C129.474 33.0336 129.282 32.9109 129.047 32.8149C128.823 32.7189 128.551 32.6709 128.231 32.6709C127.783 32.6709 127.388 32.7989 127.047 33.0549C126.706 33.3109 126.466 33.6683 126.327 34.1269H130.119Z" fill="white"/>
<g clip-path="url(#clip0)">
<path d="M38.3712 26.1894C38.3216 21.374 42.2973 19.0695 42.4735 18.9539C40.2406 15.6913 36.7661 15.2425 35.5244 15.193C32.5702 14.8901 29.7536 16.933 28.2504 16.933C26.7526 16.933 24.4344 15.2343 21.9813 15.2783C18.7545 15.3279 15.7838 17.156 14.1208 20.0414C10.7701 25.8562 13.2618 34.4683 16.5271 39.1901C18.124 41.4973 20.0292 44.0881 22.5264 43.9972C24.9327 43.9009 25.8413 42.4389 28.7514 42.4389C31.6616 42.4389 32.4793 43.9972 35.0233 43.9504C37.6141 43.9009 39.2522 41.5964 40.8353 39.2837C42.669 36.6048 43.4234 34.0085 43.4702 33.8791C43.4096 33.8461 38.4235 31.9381 38.3712 26.1894Z" fill="white"/>
<path d="M33.586 12.0681C34.9103 10.463 35.8078 8.22736 35.5628 6C33.6493 6.07709 31.3394 7.26924 29.9655 8.87712C28.7348 10.3005 27.6638 12.5719 27.9501 14.7553C30.0811 14.9232 32.2617 13.6705 33.586 12.0681Z" fill="white"/>
</g>
<defs>
<clipPath id="clip0">
<rect x="9" y="6" width="38" height="38" fill="white"/>
</clipPath>
</defs>
</svg>
